<?xml version="1.0" encoding="utf-8"?>
<!-- Generator: Adobe Illustrator 22.0.1, SVG Export Plug-In . SVG Version: 6.00 Build 0)  -->
<svg version="1.1" id="Layer_1" xmlns="http://www.w3.org/2000/svg" xmlns:xlink="http://www.w3.org/1999/xlink" x="0px" y="0px"
	 viewBox="0 0 1560.1 535" style="enable-background:new 0 0 1560.1 535;" xml:space="preserve">
<style type="text/css">
	.st0{fill:#F04E10;}
	.st1{fill:#FFFFFF;}
</style>
<path class="st0" d="M59.2,28.4c43-7.8,85.9-16.2,128.9-24.2c3.7-0.7,7.9,0.8,9.7,4.2c2.1,3.9,1.5,8.5,1.6,12.7
	c5.6-0.5,11.2-1.1,16.8-1.5c4.3-0.4,9.1,1,11.6,4.9c3.1,4.6,1.5,10.5,1.9,15.7c6.2,0.2,13.7-1,18.3,4.2c4.6,4.7,3.4,11.8,3.7,17.7
	c1.1,39.6,2.2,79.3,3.2,118.9c0.1,4.2,0.7,8.5-0.3,12.7c-14.8,53-29.6,106.1-44.6,159.1c-0.8,3.1-2.4,6.2-5.3,7.7
	c-3.4,1.9-7.4,1.1-10.9,0.3c-1.9,7.4-3.6,14.9-5.8,22.2c-0.7,2.7-3,4.8-5.7,5.3c-4.2,1-8.2-1-12-2.3c-1.3,4.9-2.2,9.8-3.6,14.7
	c-0.8,2.7-3.6,4.3-6.3,4.4c-3.8,0.3-7.1-1.9-10.4-3.5c-37.7-18.7-75.5-37.2-113.2-56c-5.7-2.8-9.6-8.7-10.8-14.9
	C17.5,277.1,9.4,223.5,1,170c-1.3-6.9-1.1-14-0.6-21C2,118,3.6,87,5.3,56c0-3.9,1.8-7.9,5.6-9.5c2.1-6.2,7.5-10.7,13.8-12.2
	c-0.1-3.5-0.2-7.6,2.4-10.3c2.1-2.3,5.6-2.4,8.5-1.7C43.5,24.2,51.3,26.6,59.2,28.4 M95,39.5c-2.3,0.2-4.6,0-6.8-0.1
	c2.2,0.4,4.4,0.7,6.6,0.8c42.5,0,85.1-0.1,127.6,0.1c-0.1-4.1-0.2-8.1-0.3-12.2C179.8,31.9,137.4,35.7,95,39.5 M42.3,47.4
	c0.6,12.6,1.3,25.2,1.9,37.8c4.5,1.4,8.9,2.8,13.4,4.2c-0.4-12.6-0.9-25.2-1.3-37.9C51.7,50.1,47,48.7,42.3,47.4 M88.8,48.5
	c5.4,0.9,10.9,1.3,16.3,1.8c44,4.3,88,8.6,132,12.9c2.5,0.1,4.7,1.1,6.8,2.3c-0.3-5.3-0.4-10.5-0.6-15.8
	c-33.1-0.1-66.2-0.5-99.4-0.7C125.6,48.8,107.2,49.1,88.8,48.5 M93.9,59.3c39.2,7.5,78.3,15.8,117.4,23.5c3.8,0.6,7.7,1.8,10.4,4.7
	c3.7,3.4,4.9,8.7,5,13.5c1.5,37.3,2.4,74.7,3.5,112.1c0.2,4.3-0.3,8.6-1.5,12.8c-11,42.8-22.1,85.5-33.2,128.3
	c2.1,0.4,4.2,0.7,6.4,1.1c14.6-53.5,29.3-107,43.9-160.6c0.8-3.2,0.3-6.5,0.3-9.7c-0.9-37-1.8-74.1-2.6-111.2
	c-47.4-4.7-94.8-9.5-142.2-14.2C98.8,59.4,96.4,59.3,93.9,59.3 M100.9,70.3c25.9,7.5,51.8,14.7,77.8,22c5.2,1.6,10.9,2.3,15.3,5.8
	c4.5,3.5,7,9.2,7.1,14.9c1.2,38.7,2.5,77.4,3.6,116.1c0.1,3.3,0,6.6-0.6,9.9c-10.9,46.7-21.8,93.4-32.6,140.1c3,1,6.1,2,9.2,3.1
	c13.5-53.4,27-106.7,40.5-160.1c0.9-3.6,0.3-7.4,0.3-11c-1.2-38.8-2.2-77.5-3.5-116.3C178.9,86.6,139.9,78.5,100.9,70.3 M25,77
	c-1.7,26.3-3.4,52.7-5.1,79c53,19.3,106,38.6,159,57.9c-1.3-30.4-2.7-60.7-3.9-91.1c-33.3-10.2-66.6-20.3-99.8-30.5
	c0.1,4.6,0.5,9.2,0.6,13.8c0.1,2.8-0.7,6-3.2,7.6c-2.3,1.5-5.1,0.6-7.5-0.1c-9.8-3-19.7-6.2-29.4-9.4c-3.6-1.1-5.8-4.6-6.8-8.1
	c-1.3-6.1-1.1-12.4-1.7-18.5C26.7,77.5,25.6,77.2,25,77 M21.4,181.4c7.1,48.7,14.3,97.5,21.4,146.2c12.1,5.8,24.2,11.6,36.3,17.3
	c-0.7-22.6-1.5-45.2-2.2-67.9c-0.3-4,3.2-7.6,7.1-7.8c5.7-0.4,11.1,2.1,15.8,5.1c6.1,4.1,11.2,11,10.6,18.7
	c-1.3,21.6-2.5,43.3-3.8,64.9c13.4,6.3,26.7,12.7,40.1,19.1c10-45.5,19.9-90.9,29.9-136.4C124.9,220.9,73.2,201.1,21.4,181.4
	 M1047,127c7.5,0,15.1,0,22.6,0c0,77.5,0,155,0,232.5c-7.5,6.1-15.1,12.3-22.6,18.4C1046.9,294.3,1047,210.7,1047,127 M1533.5,127
	c7.5,0,15.1,0,22.6,0c0,77.5,0,155,0,232.6c-7.5,6.1-15.1,12.2-22.6,18.3C1533.4,294.3,1533.5,210.7,1533.5,127 M36.3,202.2
	c10,3.9,19.9,7.8,29.8,11.7c0.6,14.9,1.3,29.7,2,44.5c-8.9-3.7-17.8-7.4-26.8-11C39.6,232.3,38,217.2,36.3,202.2 M1342.2,220.1
	c9.6,0.4,19.3-1.5,27.9-5.9c1.6,6.2,3.1,12.4,4.6,18.6c-6.2,2.9-13,4.4-19.9,4.8c13.8,17.9,12.4,45.1-1.5,62.5
	c-9.7,12.6-25.5,19.7-41.2,20c-7.7,0.1-16.1,0.5-22.6,5.2c-2.4,1.9-4.9,5-3.9,8.2c3.9,5.5,9.7,9.6,16.2,11.6
	c10.4,3.5,20.8,7.1,31.2,10.7c6.8,2.4,13.9,4.4,20.2,8c8.8,4.9,16.4,12.3,20.4,21.5c6.6,14.9,4.5,33-4.9,46.2
	c-10.6,15.3-28.5,24.2-46.7,26.4c-18.7,2.3-38.7-0.9-54.6-11.4c-13.6-8.9-23.3-24.1-24-40.6c-1.7-22.8,15-44.6,36.7-50.9
	c-6.3-5.7-12.6-11.5-19-17.2c0.8-11.6,9.8-21.3,20.3-25.4c-15.2-8.1-25.7-24.4-26.7-41.7c-1.2-15.8,4.6-32.2,16.7-42.7
	c12.8-11.5,31.1-15.5,47.9-13.1C1327,216.2,1334.2,219.9,1342.2,220.1 M1304.6,233.7c-10.6,1.5-20.3,8.2-25.2,17.7
	c-6,11.2-5.1,25.7,2.2,36c7.6,11.3,22.4,16.5,35.6,13.6c10.9-2.2,20.2-10.3,24-20.7c4.9-12.6,1.9-28.1-7.9-37.5
	C1325.9,235.4,1314.8,232.1,1304.6,233.7 M1292.6,367.7c-16.9,3.8-30.1,20.8-29,38.2c1.4,12.9,11.1,23.6,22.5,29.2
	c16.8,8.1,38,6.9,53.5-3.6c9.4-6.5,17-17.4,15.9-29.3c-0.6-10-7.7-18.9-17-22.4c-8.7-3.1-17.5-5.8-26.3-8.8
	C1305.8,369.2,1299.4,365.4,1292.6,367.7 M1142,222c14.8-7.4,32-9.2,48.2-5.9c14.8,2.8,28.9,10.6,38.2,22.6
	c9.1,11.5,13.5,26.7,12,41.3c-5.8,6-11.6,12-17.4,18c-34.4,0-68.7,0-103.1,0c-1.2,19.2,8.1,38.3,23.2,49.9
	c12.6,9.9,29,14.3,44.8,13.2c16.3-0.4,32.3-6.1,45.3-15.8c-2.1,8.3-4.3,16.5-6.3,24.8c-15.3,8.9-33.4,11.5-50.9,10.8
	c-18.3-0.9-36.4-7.6-50.4-19.4c-13.9-11.5-23.6-27.8-27.1-45.5c-3.5-17.5-2-36.1,4.8-52.7C1110.6,245.5,1124.6,230.4,1142,222
	 M1156,238c-17.1,7.4-30.6,23.3-34.3,41.7c32.1,0,64.3,0,96.4,0c1.6-13.9-4.8-28.2-15.9-36.7C1189.3,232.9,1170.9,231.5,1156,238
	 M1388.5,227.4c14.1-9.7,31.7-12.7,48.6-12.8c16.8,0,34.8,5.2,46.3,18.2c7.9,8.8,11.9,20.6,12.2,32.3c0.1,25.8-0.1,51.5,0.1,77.3
	c0,11.4,8.1,22.5,19.7,24.3c-4.8,4.8-9.7,9.7-14.5,14.5c-11.7-2.6-21.6-12.3-23.9-24.1c-9.1,15.4-27.3,23.6-44.7,24
	c-15.7,0.6-32.1-5.5-42.2-17.9c-12.6-14.9-14.1-38.2-3.2-54.5c9.2-13.8,25.2-21.9,41.4-23.7c14.9-1.5,29.9-2.9,44.8-4.3
	c-0.4-9.1,1.3-18.6-2.2-27.4c-2.7-7-8.5-12.6-15.4-15.5c-9.4-4.1-20.1-4.4-30.1-3.1c-11.3,1.6-22.5,5.1-32.1,11.3
	C1391.6,239.8,1390.2,233.5,1388.5,227.4 M1432,303.4c-8.5,0.9-17.1,4.1-23.1,10.5c-8.9,9.2-10.6,25-3.1,35.5
	c6,8.7,17,13.2,27.4,12.5c18.4-1.2,35.7-15.3,39.2-33.6c1.3-9.5,0.3-19.2,0.7-28.8C1459.3,300.8,1445.6,302.1,1432,303.4
	 M124.3,236.6c11.2,4.5,22.4,8.9,33.6,13.4c-2.2,14.5-4.5,29-6.8,43.6c-10-4.2-20.1-8.4-30.1-12.6
	C122.1,266.2,123.2,251.4,124.3,236.6 M42.7,260.7c8.8,3.8,17.6,7.6,26.4,11.5c0.6,14,1.2,28.1,1.9,42.2
	c-7.9-3.5-15.8-7.2-23.7-10.8C45.7,289.3,44.2,275,42.7,260.7 M119.6,293.8c9.8,4.2,19.5,8.4,29.2,12.6c-2.1,13.7-4.3,27.4-6.4,41
	c-8.7-3.9-17.3-7.9-26-11.7C117.5,321.7,118.6,307.7,119.6,293.8L119.6,293.8z"/>
<path class="st1" d="M95,39.5c42.4-3.8,84.8-7.7,127.2-11.5c0.1,4.1,0.2,8.1,0.3,12.2c-42.5-0.2-85.1-0.1-127.6-0.1
	c-2.2-0.1-4.5-0.4-6.6-0.8C90.5,39.5,92.8,39.7,95,39.5 M42.3,47.4c4.7,1.4,9.4,2.8,14.1,4.2c0.4,12.6,0.9,25.2,1.3,37.9
	c-4.5-1.4-9-2.8-13.4-4.2C43.6,72.6,42.9,60,42.3,47.4 M88.8,48.5c18.4,0.7,36.8,0.3,55.2,0.6c33.1,0.2,66.3,0.5,99.4,0.7
	c0.2,5.3,0.3,10.5,0.6,15.8c-2.1-1.2-4.4-2.2-6.8-2.3c-44-4.4-88-8.6-132-12.9C99.7,49.7,94.2,49.4,88.8,48.5 M93.9,59.3
	c2.5,0,4.9,0.1,7.3,0.3c47.4,4.8,94.8,9.5,142.2,14.2c0.9,37.1,1.7,74.1,2.6,111.2c0,3.2,0.5,6.5-0.3,9.7
	c-14.6,53.5-29.3,107-43.9,160.6c-2.1-0.4-4.2-0.8-6.4-1.1c11.1-42.8,22.2-85.5,33.2-128.3c1.2-4.2,1.7-8.5,1.5-12.8
	c-1.1-37.4-2-74.7-3.5-112.1c-0.1-4.9-1.3-10.1-5-13.5c-2.8-2.8-6.6-4-10.4-4.7C172.2,75.1,133.1,66.7,93.9,59.3 M100.9,70.3
	c39,8.1,78,16.3,117,24.4c1.3,38.8,2.3,77.5,3.5,116.3c0,3.7,0.6,7.4-0.3,11c-13.5,53.3-27,106.7-40.5,160.1c-3.1-1-6.1-2-9.2-3.1
	c10.9-46.7,21.8-93.4,32.6-140.1c0.7-3.2,0.8-6.6,0.6-9.9c-1.1-38.7-2.4-77.4-3.6-116.1c-0.2-5.7-2.6-11.4-7.1-14.9
	c-4.3-3.5-10.1-4.3-15.3-5.8C152.8,85,126.8,77.8,100.9,70.3 M25,77c0.6,0.2,1.7,0.5,2.3,0.7c0.6,6.2,0.3,12.4,1.7,18.5
	c1,3.5,3.2,6.9,6.8,8.1c9.8,3.2,19.6,6.4,29.4,9.4c2.4,0.7,5.2,1.6,7.5,0.1c2.4-1.7,3.2-4.8,3.2-7.6c-0.1-4.6-0.5-9.2-0.6-13.8
	c33.2,10.2,66.5,20.3,99.8,30.5c1.2,30.4,2.6,60.7,3.9,91.1c-53-19.3-106-38.6-159-57.9C21.6,129.7,23.3,103.3,25,77 M21.4,181.4
	c51.8,19.7,103.5,39.5,155.3,59.3c-10,45.4-19.9,90.9-29.9,136.4c-13.4-6.4-26.7-12.7-40.1-19.1c1.3-21.6,2.5-43.3,3.8-64.9
	c0.6-7.7-4.5-14.6-10.6-18.7c-4.7-3-10.1-5.6-15.8-5.1c-3.9,0.2-7.3,3.8-7.1,7.8c0.7,22.6,1.5,45.3,2.2,67.9
	c-12.1-5.7-24.2-11.5-36.3-17.3C35.7,278.8,28.5,230.1,21.4,181.4 M36.3,202.2c1.7,15.1,3.3,30.1,5,45.2c8.9,3.6,17.8,7.4,26.8,11
	c-0.6-14.9-1.3-29.7-2-44.5C56.2,209.9,46.3,206,36.3,202.2 M124.3,236.6c-1.1,14.8-2.2,29.5-3.2,44.3c10,4.2,20,8.4,30.1,12.6
	c2.3-14.5,4.6-29,6.8-43.6C146.7,245.5,135.5,241.1,124.3,236.6 M42.7,260.7c1.5,14.3,3,28.6,4.6,42.9c7.9,3.5,15.8,7.2,23.7,10.8
	c-0.6-14.1-1.2-28.1-1.9-42.2C60.3,268.3,51.5,264.5,42.7,260.7 M119.6,293.8c-1,14-2.1,27.9-3.1,41.9c8.7,3.9,17.3,7.9,26,11.7
	c2.1-13.7,4.3-27.4,6.4-41C139.1,302.2,129.4,298,119.6,293.8L119.6,293.8z"/>
<path class="st1" d="M378,128.2c7.4,0,14.8,0,22.2,0c0,76.4,0,152.8,0,229.2c-6.5,5.3-13,10.6-19.5,16c-0.2-4.3-0.5-8.7-0.7-13
	c-11.3,11.2-27.6,15.5-43.1,16.2c-20.6,1.3-41.5-5.9-56.9-19.6c-11-9.8-19.4-22.7-23.3-36.9c-4.4-16-4.5-33.3,0-49.3
	c5.1-18,16.9-34,32.8-44c16.3-10.6,36.4-14.4,55.5-12.4c11.5,1.2,23.1,4.4,32.8,11C377.9,192.9,378,160.5,378,128.2 M291.8,251.8
	c-13.8,14.7-18.4,36.2-15.1,55.7c2.2,13.8,9.1,26.9,19.8,35.8c12.1,10.6,28.8,14.9,44.6,13.7c13.4-1,26.9-5.7,36.8-14.9
	c-0.1-31.2,0-62.4-0.1-93.6c-13-11.9-31.6-16.5-48.9-14.9C315,234.9,301.4,241.3,291.8,251.8 M456.8,221.7
	c13.2-6.8,28.5-9.3,43.2-7.1c13.7,1.5,26.9,7.3,36.9,16.8c12.1,11.3,18.6,28.2,17.4,44.7c0.1,1.7-1.2,2.8-2.2,3.9
	c-5,5.1-9.9,10.3-14.9,15.4c-33.6,0-67.3,0-100.9,0c-0.9,15.6,5.1,31.3,15.8,42.5c9.3,9.8,21.8,16.4,35.1,18.4
	c20.9,3.2,43-1.9,59.9-14.6c-2.1,8.1-4.2,16.2-6.2,24.3c-15.6,9-34.1,11.6-51.8,10.4c-18.3-1.3-36.1-8.6-49.7-20.9
	c-10.8-9.8-18.9-22.7-22.8-36.8c-4.7-17.1-4-35.7,1.5-52.5C424.8,247.2,438.7,230.7,456.8,221.7 M463.2,241.2
	c-12.5,8.3-22.1,21.4-25,36.2c31.4,0,62.8,0,94.3,0c2-17.5-9-35.2-25.4-41.5C492.7,230.4,475.9,232.7,463.2,241.2 M802.1,221.1
	c12.9-6.4,27.7-8.6,41.9-6.5c13.4,1.5,26.4,7,36.3,16.2c12.7,11.5,19.6,29.2,17.9,46.2c-0.2,1.3-1.4,2.1-2.2,3.1
	c-5,5.1-9.8,10.3-14.8,15.3c-33.6,0-67.2,0-100.8,0c-0.8,14.9,4.5,29.8,14.4,40.9c8.9,10,21.1,17.1,34.3,19.6
	c21.5,4,44.6-1,62.2-14.2c-2.1,8.1-4.2,16.2-6.2,24.3c-15.3,8.9-33.5,11.4-50.9,10.4c-15.9-1-31.6-6.5-44.5-16
	c-14.2-10.5-24.8-25.9-29.2-43c-4.3-16.7-3.5-34.7,1.8-51.1C769,246.8,783.4,230,802.1,221.1 M808.4,240.4
	c-13.1,8.3-23.1,21.7-26.2,37c31.4,0,62.9,0,94.3,0c1.9-16.9-8.3-34-23.8-40.8C838.5,230.4,821.5,232.3,808.4,240.4 M735.4,220.2
	c8.7-3.6,18.1-4.9,27.4-5.1c1.5,6.3,3,12.5,4.5,18.8c-14.9-0.9-30.2,3.9-40.9,14.4c-12.8,11.8-17.1,29.9-17.5,46.7
	c-0.1,26,0,52.1,0,78.1c-7.3,0-14.6,0-21.9,0c0-31.4,0-62.7,0-94.1c0.2-14.9-0.3-29.8,0.2-44.6c6.7-6,13.8-11.5,20.6-17.3
	c0.3,9.9,0.7,19.7,0.9,29.6C713.3,234.5,723.4,225.1,735.4,220.2 M561,217.3c36.1,0,72.2,0,108.3,0c-0.1,2,0.2,4.1-1.1,5.8
	c-20.4,32.6-40.8,65.2-61.2,97.9c-6.7,11.3-13.6,22.5-20.8,33.5c29.7,0.1,59.4,0,89.2,0.1c0,6.2,0,12.4,0,18.6
	c-40.3,0-80.6,0-120.9,0c0.1-2-0.3-4.1,1-5.8c20.3-32.4,40.6-64.8,60.8-97.3c6.9-11.6,14.1-23,21.5-34.2c-25.6-0.1-51.2,0-76.8,0
	C561,229.7,561,223.5,561,217.3 M905.1,217.3c36.1,0,72.1,0,108.2,0c0.8,4.5-2.4,7.9-4.5,11.4c-19.3,30.8-38.5,61.5-57.7,92.3
	c-6.6,11.3-13.5,22.5-20.7,33.4c29.7,0.1,59.5,0,89.2,0.1c0,6.2,0,12.4,0,18.6c-40.3,0-80.6,0-121,0c0.2-1.9-0.3-4,1-5.7
	c13.5-21.5,26.9-43.1,40.4-64.6c14.2-22.2,27.5-45,42-66.9c-25.6-0.1-51.2,0-76.8,0C905.1,229.7,905.1,223.5,905.1,217.3
	L905.1,217.3z"/>
<path class="st1" d="M278.2,408.7l16.5,46.7l16.5-46.7h17.4v64.4h-13.3v-17.6l1.3-30.4l-17.4,48h-9.1l-17.3-47.9l1.3,30.3v17.6
	h-13.3v-64.4H278.2z"/>
<path class="st1" d="M362.5,473.1c-0.6-1.1-1-2.6-1.3-4.3c-3.1,3.4-7.1,5.2-12.1,5.2c-4.7,0-8.6-1.4-11.7-4.1
	c-3.1-2.7-4.6-6.1-4.6-10.3c0-5.1,1.9-9,5.6-11.7c3.8-2.7,9.2-4.1,16.3-4.1h5.9v-2.7c0-2.2-0.6-4-1.7-5.3c-1.1-1.3-2.9-2-5.4-2
	c-2.2,0-3.8,0.5-5.1,1.5c-1.2,1-1.8,2.4-1.8,4.2H334c0-2.8,0.9-5.3,2.6-7.7c1.7-2.4,4.1-4.2,7.3-5.6c3.1-1.3,6.6-2,10.5-2
	c5.9,0,10.6,1.5,14,4.4c3.5,3,5.2,7.1,5.2,12.5V462c0,4.5,0.7,8,1.9,10.3v0.8H362.5z M352,464.2c1.9,0,3.6-0.4,5.2-1.3
	c1.6-0.8,2.8-2,3.5-3.4v-8.2H356c-6.4,0-9.8,2.2-10.2,6.6l0,0.8c0,1.6,0.6,2.9,1.7,3.9C348.5,463.7,350,464.2,352,464.2z"/>
<path class="st1" d="M396.2,453.9l-4.6,4.6v14.6h-12.8v-67.9h12.8v37.6l2.5-3.2l12.3-14.4h15.3l-17.3,19.9l18.8,27.9h-14.7
	L396.2,453.9z"/>
<path class="st1" d="M422.6,412.8c0-1.9,0.6-3.5,1.9-4.7c1.3-1.2,3-1.9,5.2-1.9c2.2,0,3.9,0.6,5.2,1.9c1.3,1.2,1.9,2.8,1.9,4.7
	c0,1.9-0.7,3.5-2,4.8s-3,1.9-5.2,1.9c-2.2,0-3.9-0.6-5.2-1.9C423.3,416.4,422.6,414.8,422.6,412.8z M436.2,473.1h-12.8v-47.9h12.8
	V473.1z"/>
<path class="st1" d="M453.9,425.2l0.4,5.5c3.4-4.3,8-6.4,13.8-6.4c5.1,0,8.8,1.5,11.3,4.5s3.7,7.4,3.8,13.4v30.9h-12.8v-30.7
	c0-2.7-0.6-4.7-1.8-5.9c-1.2-1.2-3.1-1.8-5.9-1.8c-3.6,0-6.3,1.5-8.1,4.6v33.8h-12.8v-47.9H453.9z"/>
<path class="st1" d="M486.5,448.8c0-7.3,1.7-13.3,5.2-17.7c3.5-4.5,8.2-6.7,14.1-6.7c5.2,0,9.3,1.8,12.3,5.4l0.5-4.5h11.6v46.3
	c0,4.2-1,7.8-2.9,10.9c-1.9,3.1-4.6,5.5-8,7.1s-7.5,2.4-12.1,2.4c-3.5,0-6.9-0.7-10.3-2.1c-3.3-1.4-5.9-3.2-7.6-5.4l5.7-7.8
	c3.2,3.6,7,5.4,11.6,5.4c3.4,0,6-0.9,7.9-2.7c1.9-1.8,2.8-4.4,2.8-7.7V469c-2.9,3.3-6.8,5-11.6,5c-5.7,0-10.4-2.2-14-6.7
	c-3.6-4.5-5.3-10.5-5.3-17.9V448.8z M499.3,449.7c0,4.4,0.9,7.8,2.6,10.2c1.7,2.5,4.1,3.7,7.2,3.7c3.9,0,6.7-1.5,8.4-4.4V439
	c-1.7-2.9-4.5-4.4-8.3-4.4c-3.1,0-5.5,1.3-7.2,3.8C500.2,440.9,499.3,444.7,499.3,449.7z"/>
<path class="st1" d="M571.8,408.7l16.5,46.7l16.5-46.7h17.4v64.4h-13.3v-17.6l1.3-30.4l-17.4,48h-9.1l-17.3-47.9l1.3,30.3v17.6
	h-13.3v-64.4H571.8z"/>
<path class="st1" d="M626.4,448.7c0-4.7,0.9-9,2.7-12.7c1.8-3.7,4.5-6.6,7.9-8.6c3.4-2,7.4-3.1,12-3.1c6.5,0,11.7,2,15.8,5.9
	c4.1,4,6.4,9.3,6.8,16.1l0.1,3.3c0,7.3-2.1,13.2-6.1,17.7c-4.1,4.4-9.6,6.7-16.5,6.7c-6.9,0-12.4-2.2-16.5-6.6
	c-4.1-4.4-6.2-10.4-6.2-18V448.7z M639.2,449.6c0,4.5,0.9,8,2.6,10.4c1.7,2.4,4.2,3.6,7.3,3.6c3.1,0,5.5-1.2,7.3-3.6
	c1.7-2.4,2.6-6.2,2.6-11.4c0-4.5-0.9-7.9-2.6-10.4s-4.2-3.7-7.3-3.7c-3.1,0-5.5,1.2-7.3,3.7C640,440.7,639.2,444.5,639.2,449.6z"/>
<path class="st1" d="M692.3,457.5l8.9-32.2h13.4l-16.1,47.9h-12.2l-16.1-47.9h13.4L692.3,457.5z"/>
<path class="st1" d="M715.6,412.8c0-1.9,0.6-3.5,1.9-4.7c1.3-1.2,3-1.9,5.2-1.9c2.2,0,3.9,0.6,5.2,1.9c1.3,1.2,1.9,2.8,1.9,4.7
	c0,1.9-0.7,3.5-2,4.8c-1.3,1.2-3,1.9-5.2,1.9c-2.2,0-3.9-0.6-5.2-1.9C716.2,416.4,715.6,414.8,715.6,412.8z M729.2,473.1h-12.8
	v-47.9h12.8V473.1z"/>
<path class="st1" d="M746.9,425.2l0.4,5.5c3.4-4.3,8-6.4,13.8-6.4c5.1,0,8.8,1.5,11.3,4.5c2.5,3,3.7,7.4,3.8,13.4v30.9h-12.8v-30.7
	c0-2.7-0.6-4.7-1.8-5.9c-1.2-1.2-3.1-1.8-5.9-1.8c-3.6,0-6.3,1.5-8.1,4.6v33.8h-12.8v-47.9H746.9z"/>
<path class="st1" d="M779.5,448.8c0-7.3,1.7-13.3,5.2-17.7c3.5-4.5,8.2-6.7,14.1-6.7c5.2,0,9.3,1.8,12.3,5.4l0.5-4.5h11.6v46.3
	c0,4.2-1,7.8-2.9,10.9c-1.9,3.1-4.6,5.5-8,7.1c-3.4,1.6-7.5,2.4-12.1,2.4c-3.5,0-6.9-0.7-10.3-2.1c-3.3-1.4-5.9-3.2-7.6-5.4l5.7-7.8
	c3.2,3.6,7,5.4,11.6,5.4c3.4,0,6-0.9,7.9-2.7c1.9-1.8,2.8-4.4,2.8-7.7V469c-2.9,3.3-6.8,5-11.6,5c-5.7,0-10.4-2.2-14-6.7
	c-3.6-4.5-5.3-10.5-5.3-17.9V448.8z M792.3,449.7c0,4.4,0.9,7.8,2.6,10.2c1.7,2.5,4.1,3.7,7.2,3.7c3.9,0,6.7-1.5,8.4-4.4V439
	c-1.7-2.9-4.5-4.4-8.3-4.4c-3.1,0-5.5,1.3-7.2,3.8C793.1,440.9,792.3,444.7,792.3,449.7z"/>
<path class="st0" d="M886.1,445.1h-25.5v17.3h29.9v10.7h-43.2v-64.4h43.1v10.7h-29.8v15.3h25.5V445.1z"/>
<path class="st0" d="M920.7,473.1c-0.6-1.1-1-2.6-1.3-4.3c-3.1,3.4-7.1,5.2-12.1,5.2c-4.7,0-8.6-1.4-11.7-4.1
	c-3.1-2.7-4.6-6.1-4.6-10.3c0-5.1,1.9-9,5.6-11.7c3.8-2.7,9.2-4.1,16.3-4.1h5.9v-2.7c0-2.2-0.6-4-1.7-5.3c-1.1-1.3-2.9-2-5.4-2
	c-2.2,0-3.8,0.5-5.1,1.5c-1.2,1-1.8,2.4-1.8,4.2h-12.8c0-2.8,0.9-5.3,2.6-7.7c1.7-2.4,4.1-4.2,7.3-5.6c3.1-1.3,6.6-2,10.5-2
	c5.9,0,10.6,1.5,14,4.4c3.5,3,5.2,7.1,5.2,12.5V462c0,4.5,0.7,8,1.9,10.3v0.8H920.7z M910.1,464.2c1.9,0,3.6-0.4,5.2-1.3
	c1.6-0.8,2.8-2,3.5-3.4v-8.2h-4.8c-6.4,0-9.8,2.2-10.2,6.6l0,0.8c0,1.6,0.6,2.9,1.7,3.9C906.6,463.7,908.2,464.2,910.1,464.2z"/>
<path class="st0" d="M962.9,459.9c0-1.6-0.8-2.8-2.3-3.7c-1.5-0.9-4-1.7-7.5-2.4c-11.4-2.4-17.1-7.2-17.1-14.5
	c0-4.2,1.8-7.8,5.3-10.6s8.1-4.3,13.8-4.3c6.1,0,10.9,1.4,14.6,4.3c3.6,2.9,5.5,6.6,5.5,11.1h-12.8c0-1.8-0.6-3.3-1.8-4.5
	c-1.2-1.2-3-1.8-5.5-1.8c-2.2,0-3.8,0.5-5,1.5c-1.2,1-1.8,2.2-1.8,3.7c0,1.4,0.7,2.6,2,3.4c1.3,0.9,3.6,1.6,6.8,2.3s5.9,1.3,8,2.1
	c6.8,2.5,10.1,6.8,10.1,12.9c0,4.4-1.9,7.9-5.6,10.6c-3.7,2.7-8.6,4-14.5,4c-4,0-7.6-0.7-10.7-2.1c-3.1-1.4-5.6-3.4-7.3-5.9
	c-1.8-2.5-2.7-5.2-2.7-8.1h12.1c0.1,2.3,1,4,2.5,5.2c1.6,1.2,3.7,1.8,6.3,1.8c2.4,0,4.3-0.5,5.6-1.4
	C962.3,462.6,962.9,461.4,962.9,459.9z"/>
<path class="st0" d="M996.9,455l8.8-29.8h13.7l-19.2,55.3l-1.1,2.5c-2.9,6.3-7.6,9.4-14.2,9.4c-1.9,0-3.7-0.3-5.7-0.8v-9.7l1.9,0
	c2.4,0,4.2-0.4,5.4-1.1c1.2-0.7,2.1-2,2.8-3.7l1.5-3.9l-16.8-48H988L996.9,455z"/>
</svg>
